<?xml version="1.0" encoding="utf-8"?><svg width="202" height="100" viewBox="0 0 202 100" xmlns="http://www.w3.org/2000/svg" xmlns:xlink="http://www.w3.org/1999/xlink"><svg data-name="Слой 1" viewBox="-1 -1 46.14 46.6" width="46.14" height="46.6" id="delivery" y="53" xmlns="http://www.w3.org/2000/svg"><title>delivery</title><path d="M22.072.615A21.688 21.688 0 0 0 .412 21.192q-.027.552-.028 1.11A21.655 21.655 0 0 0 5.15 35.844q.61.76 1.285 1.463A21.68 21.68 0 1 0 22.072.615zM5.193 14.335l4.5-.036a1.138 1.138 0 1 1 .021 2.266l-5.435.042a18.506 18.506 0 0 1 .914-2.273zm-1.751 6.832a18.674 18.674 0 0 1 .267-2.263c2.005-.015 4.01-.035 6.015-.05a1.15 1.15 0 0 1 1.224.83 1.106 1.106 0 0 1-.55 1.299 1.533 1.533 0 0 1-.64.132q-3.158.03-6.316.052zm18.63 19.823A18.63 18.63 0 0 1 8.07 34.638a.295.295 0 0 1 .28-.133q5.474-.03 10.948-.077a1.747 1.747 0 0 1 .185.027 8.029 8.029 0 0 0 .015 1.068 3.681 3.681 0 0 0 4.326 3.176 5.722 5.722 0 0 0 4.754-4.036c.083-.235.181-.334.437-.323.417.019.837.01 1.255-.005a1.328 1.328 0 0 0 1.357-1.167c.12-.599.244-1.196.367-1.794l-.002-.236c-.235-.512-.277-.554-.81-.785.255-1.3.514-2.612.773-3.924l-.005-.628a1.042 1.042 0 0 0-1.143-.555c-.277.042-.414-.087-.547-.32-1.226-2.158-2.474-4.305-3.695-6.466a1.11 1.11 0 0 0-1.11-.627c-1.333.032-2.667.027-4.001.037l-.43.004.437-2.468c.142-.797.298-1.592.423-2.392a.854.854 0 0 0-.958-1.097q-7.226.058-14.453.119A18.682 18.682 0 1 1 22.072 40.99zm-2.39-15.683l.956-5.31 1.253-.01c.862-.007 1.725-.022 2.587-.013a.504.504 0 0 1 .377.178c.96 1.646 1.905 3.302 2.851 4.956a.544.544 0 0 1 .029.135l-8.052.064zm6.938 8.704a3.153 3.153 0 0 1-2.676 2.595 2.028 2.028 0 0 1-2.281-2.504 3.131 3.131 0 0 1 2.933-2.442 1.974 1.974 0 0 1 2.024 2.351z" fill="#fff196"/></svg><svg data-name="Слой 1" viewBox="-1 -1 46.14 46.6" width="46.14" height="46.6" id="guarantee" x="46.14" y="53" xmlns="http://www.w3.org/2000/svg"><title>guarantee</title><g fill="#fff196"><path d="M22.072.615a21.688 21.688 0 1 0 21.687 21.687A21.711 21.711 0 0 0 22.072.615zm0 40.375a18.688 18.688 0 1 1 18.687-18.688A18.708 18.708 0 0 1 22.072 40.99z"/><path d="M17.519 32.685c.302-.272.59-.56.923-.88a4.668 4.668 0 0 1-.66-.358 1.11 1.11 0 0 0-.748-.203c-1.313.007-2.625.003-3.938.003-.676 0-.853-.174-.853-.84V10.42c0-.673.173-.847.846-.847h15.004c.68 0 .843.164.843.845q0 5.01-.004 10.022c0 .202.039.314.253.387a1.462 1.462 0 0 1 .58.35 10.594 10.594 0 0 1 .693.891v-1.141l.02-10.62a2.117 2.117 0 0 0-2.158-2.273q-7.725-.014-15.451-.002a2.105 2.105 0 0 0-1.331.446 2.255 2.255 0 0 0-.836 1.915q.007 9.351.003 18.703c0 .487-.008.974.002 1.461a2.117 2.117 0 0 0 2.138 2.232c1.462.018 2.924.007 4.385 0a.47.47 0 0 0 .289-.105z"/><path d="M27.27 33.528c.39.078.784.13 1.086.18a.843.843 0 0 0 .94-.683c.072-.38.131-.764.175-1.148a1.002 1.002 0 0 1 .618-.876c.316-.142.623-.307.933-.464a.859.859 0 0 0 .424-1.327c-.166-.328-.332-.656-.505-.98a.907.907 0 0 1 0-.909c.177-.333.348-.67.518-1.006a.848.848 0 0 0-.412-1.286c-.318-.163-.635-.33-.96-.477a1.003 1.003 0 0 1-.616-.878 15.35 15.35 0 0 0-.165-1.09.825.825 0 0 0-1.007-.726 19.74 19.74 0 0 0-1.057.177 1.039 1.039 0 0 1-1.076-.336c-.236-.268-.494-.517-.75-.767a.84.84 0 0 0-1.289-.004c-.263.257-.53.512-.773.787a1.008 1.008 0 0 1-1.022.326c-.37-.069-.743-.133-1.117-.182a.834.834 0 0 0-.99.755c-.063.392-.124.785-.178 1.178a.884.884 0 0 1-.513.717c-.357.176-.713.351-1.065.534a.847.847 0 0 0-.4 1.25c.176.355.36.707.545 1.058a.863.863 0 0 1 0 .855c-.17.325-.337.652-.505.98a.88.88 0 0 0 .437 1.37q.492.248.986.492a.884.884 0 0 1 .515.717c.053.383.116.766.174 1.149a.84.84 0 0 0 1.022.783c.364-.046.726-.11 1.087-.178a1.013 1.013 0 0 1 1.024.323c.25.282.522.546.795.807a.823.823 0 0 0 1.243-.002c.257-.248.519-.495.752-.766a1.08 1.08 0 0 1 1.126-.353zm-2.529-.79a5.087 5.087 0 1 1 5.116-5.08 5.086 5.086 0 0 1-5.116 5.08zM26.32 13.035a1.769 1.769 0 0 0-.44-.048q-5.308-.004-10.617-.002c-.604 0-.937.252-.946.712-.01.472.326.73.954.73h10.587a2.192 2.192 0 0 0 .415-.026.72.72 0 0 0 .566-.68.71.71 0 0 0-.518-.686zM25.878 16.69q-5.307-.003-10.615 0a1.894 1.894 0 0 0-.412.045.648.648 0 0 0-.522.58.61.61 0 0 0 .319.681 1.396 1.396 0 0 0 .596.13c1.779.01 3.558.005 5.337.005h5.278a2.675 2.675 0 0 0 .357-.017.711.711 0 0 0 .62-.662.703.703 0 0 0-.545-.718 1.843 1.843 0 0 0-.413-.044z"/><path d="M31.125 33.432l-1.14-1.14c-.042.284-.07.49-.102.694a1.42 1.42 0 0 1-1.724 1.261c-.333-.054-.672-.083-1-.164a.52.52 0 0 0-.645.265.221.221 0 0 0 .028.057c.997 1 1.99 2.002 2.994 2.994a.455.455 0 0 0 .816-.267c.082-.399.156-.8.218-1.201a.284.284 0 0 1 .281-.275 10.27 10.27 0 0 0 1.168-.227c.16-.044.377-.175.413-.308a.665.665 0 0 0-.157-.52c-.363-.409-.764-.782-1.15-1.169zM22.392 34.082c-.355.087-.722.126-1.085.181a1.406 1.406 0 0 1-1.622-1.145c-.05-.253-.084-.508-.13-.788-.81.8-1.602 1.565-2.372 2.351a.433.433 0 0 0 .274.74c.406.09.816.17 1.227.232a.297.297 0 0 1 .293.3c.05.363.133.721.197 1.083.04.222.096.435.342.513.246.078.41-.066.571-.227q1.387-1.393 2.779-2.782c.06-.06.113-.128.165-.187a.521.521 0 0 0-.639-.271zM24.744 23.302a4.348 4.348 0 1 0 4.372 4.31 4.362 4.362 0 0 0-4.372-4.31z"/></g></svg><svg data-name="Слой 1" viewBox="-1 -1 202 53" width="202" height="53" id="logo" xmlns="http://www.w3.org/2000/svg"><title>logo</title><path fill="#d5574e" d="M68.21 35.163v5.285h-1.416v-4.14h-1.103v4.14h-1.415v-5.285h3.934zM70.478 35.163v1.145c0 .962-.054 1.892-.108 2.432h.032c.173-.551.41-1.145.584-1.567l.8-2.01h1.34v5.285H71.84v-1.156c0-1.07.054-1.676.086-2.378h-.032a15.294 15.294 0 0 1-.508 1.502c-.14.357-.562 1.395-.865 2.032h-1.318v-5.285zM77.458 35.163v1.145H76.28v4.14h-1.426v-4.14h-1.179v-1.145h3.783zM79.77 35.076c-1.048 0-2.043.843-2.043 2.746 0 1.718.757 2.713 2.021 2.713.8 0 2.021-.54 2.021-2.746 0-1.665-.756-2.713-2-2.713zm.01 4.377c-.507 0-.648-.756-.648-1.664 0-.724.108-1.643.627-1.643.476 0 .595.92.595 1.643 0 .778-.12 1.664-.573 1.664zM82.763 35.163h1.761l.39 1.685c.108.455.205.865.356 1.546h.033c.14-.67.216-1.102.313-1.546l.367-1.685h1.762l.346 5.285h-1.319l-.065-1.848c-.01-.497-.032-1.124-.054-2.237h-.021c-.087.453-.26 1.373-.443 2.183l-.411 1.816h-1.146l-.421-1.838c-.13-.594-.313-1.62-.433-2.161h-.021c-.01 1.091-.032 1.73-.044 2.248l-.053 1.837h-1.276zM90.347 35.163v1.999h1.113v-1.999h1.417v5.285H91.46v-2.086h-1.113v2.086h-1.415v-5.285h1.415zM95.144 35.163v1.145c0 .962-.054 1.892-.108 2.432h.033c.173-.551.41-1.145.583-1.567l.8-2.01h1.34v5.285h-1.286v-1.156c0-1.07.054-1.676.087-2.378h-.033a15.077 15.077 0 0 1-.507 1.502c-.141.357-.563 1.395-.866 2.032H93.87v-5.285zM100.157 35.163v2.107h.152l.918-2.107h1.47l-1.361 2.27c.53.173.799.821.94 1.513a9.747 9.747 0 0 0 .465 1.502h-1.416a5.831 5.831 0 0 1-.379-1.286c-.13-.53-.346-.908-.692-.908h-.097v2.194h-1.383v-5.285zM109.04 39.41v-4.247h-3.459V36.6a8.29 8.29 0 0 1-.173 1.73 3.367 3.367 0 0 1-.388 1.08l-.432.022.053 2.475h1.06l.076-1.46h2.56l.066 1.46h1.07l.054-2.475zm-1.394-.032h-1.275a3.982 3.982 0 0 0 .324-1.07 10.261 10.261 0 0 0 .13-1.61v-.444h.82zM113.858 37.573c0-1.6-.658-2.497-1.794-2.497-1.2 0-2.118 1.06-2.118 2.832 0 1.654.789 2.605 2.227 2.605a4.375 4.375 0 0 0 1.458-.238l-.194-1.016a3.108 3.108 0 0 1-1.005.173 1.02 1.02 0 0 1-1.124-1.124h2.507a3.773 3.773 0 0 0 .043-.735zm-2.54-.26c.012-.53.195-1.21.66-1.21.421 0 .594.53.594 1.21zM116.04 35.163v2.107h.152l.918-2.107h1.47l-1.362 2.27c.53.173.8.821.94 1.513a9.747 9.747 0 0 0 .465 1.502h-1.415a5.831 5.831 0 0 1-.38-1.286c-.128-.53-.345-.908-.691-.908h-.097v2.194h-1.383v-5.285zM120.914 35.076c-1.049 0-2.043.843-2.043 2.746 0 1.718.756 2.713 2.021 2.713.8 0 2.02-.54 2.02-2.746 0-1.665-.756-2.713-1.998-2.713zm.01 4.377c-.508 0-.648-.756-.648-1.664 0-.724.108-1.643.627-1.643.475 0 .594.92.594 1.643 0 .778-.12 1.664-.573 1.664zM126.09 35.076a1.205 1.205 0 0 0-1.104.692h-.021l-.076-.605h-1.232c.022.497.043 1.038.043 1.675v5.685h1.416v-2.507h.022a1.029 1.029 0 0 0 .875.519c.886 0 1.719-.854 1.719-2.735 0-1.47-.476-2.724-1.643-2.724zm-.444 4.302c-.162 0-.346-.086-.454-.41a1.082 1.082 0 0 1-.076-.455v-1.415a.874.874 0 0 1 .065-.379.548.548 0 0 1 .476-.454c.422 0 .659.54.659 1.546 0 .832-.173 1.567-.67 1.567zM132.096 39.237V37.27c0-1.07-.259-2.194-1.869-2.194a3.444 3.444 0 0 0-1.643.4l.26.951a1.976 1.976 0 0 1 1.08-.303.673.673 0 0 1 .746.714v.119c-1.2.01-2.421.583-2.421 1.967a1.465 1.465 0 0 0 1.394 1.61 1.38 1.38 0 0 0 1.168-.605h.021l.076.519h1.275a7.114 7.114 0 0 1-.087-1.21zm-1.383-.442a.923.923 0 0 1-.032.248.615.615 0 0 1-.584.454c-.216 0-.508-.194-.508-.724 0-.735.65-.887 1.124-.898zM136.387 35.163v1.145h-1.179v4.14h-1.427v-4.14h-1.177v-1.145h3.783zM138.265 35.163v1.145c0 .962-.054 1.892-.108 2.432h.033c.173-.551.41-1.145.583-1.567l.8-2.01h1.34v5.285h-1.286v-1.156c0-1.07.054-1.676.087-2.378h-.033a15.077 15.077 0 0 1-.507 1.502c-.141.357-.563 1.395-.866 2.032h-1.318v-5.285zM144.749 37.649v-.022a1.247 1.247 0 0 0 1.016-1.221c0-1.19-1.405-1.33-2.334-1.33a10.823 10.823 0 0 0-1.535.109v5.274c.303.032.8.054 1.296.054 1.082 0 2.8-.206 2.8-1.61a1.306 1.306 0 0 0-1.243-1.254zm-1.491-1.621a1.822 1.822 0 0 1 .356-.033c.508 0 .833.206.833.616 0 .433-.4.66-.865.66h-.324zm.346 3.566a1.825 1.825 0 0 1-.357-.032v-1.373h.335c.551 0 1.005.216 1.005.713 0 .519-.486.692-.983.692zM148.195 35.163v1.999h1.113v-1.999h1.417v5.285h-1.417v-2.086h-1.113v2.086h-1.416v-5.285h1.416zM153.662 36.805a2.935 2.935 0 0 0-.551.043v-1.685h-1.394v5.242a11.007 11.007 0 0 0 1.383.097 3.394 3.394 0 0 0 1.913-.518 1.681 1.681 0 0 0 .67-1.417 1.814 1.814 0 0 0-2.021-1.762zm-.248 2.66a2.46 2.46 0 0 1-.303-.012v-1.588a1.289 1.289 0 0 1 .292-.022.812.812 0 1 1 .01 1.622zM156.115 35.163h1.416v5.285h-1.416zM159.615 35.163l.325.94c.108.314.194.627.26.886h.021c.075-.27.162-.594.248-.886l.314-.94h1.426l-1.2 2.594 1.222 2.69h-1.546l-.356-.994q-.146-.404-.26-.81h-.02c-.066.27-.163.54-.24.81l-.323.995h-1.416l1.178-2.626-1.168-2.659zM166.877 35.076a1.205 1.205 0 0 0-1.103.692h-.022l-.075-.605h-1.232c.022.497.043 1.038.043 1.675v5.685h1.416v-2.507h.021a1.029 1.029 0 0 0 .876.519c.886 0 1.718-.854 1.718-2.735 0-1.47-.475-2.724-1.642-2.724zm-.444 4.302c-.162 0-.345-.086-.454-.41a1.082 1.082 0 0 1-.075-.455v-1.415a.874.874 0 0 1 .064-.379.548.548 0 0 1 .476-.454c.422 0 .66.54.66 1.546 0 .832-.173 1.567-.67 1.567zM172.884 39.237V37.27c0-1.07-.259-2.194-1.87-2.194a3.444 3.444 0 0 0-1.642.4l.26.951a1.976 1.976 0 0 1 1.08-.303.673.673 0 0 1 .746.714v.119c-1.2.01-2.421.583-2.421 1.967a1.465 1.465 0 0 0 1.394 1.61 1.38 1.38 0 0 0 1.167-.605h.022l.076.519h1.275a7.114 7.114 0 0 1-.087-1.21zm-1.383-.442a.923.923 0 0 1-.033.248.614.614 0 0 1-.583.454c-.216 0-.508-.194-.508-.724 0-.735.649-.887 1.124-.898zM176.817 40.362a2.5 2.5 0 0 1-.897.151c-1.34 0-2.216-.93-2.216-2.66a2.477 2.477 0 0 1 2.421-2.766 2.08 2.08 0 0 1 .778.14l-.184 1.113a1.489 1.489 0 0 0-.53-.096c-.68 0-1.08.648-1.08 1.567 0 .962.4 1.545 1.06 1.545a1.154 1.154 0 0 0 .529-.108zM181.095 35.163v1.145h-1.178v4.14h-1.427v-4.14h-1.177v-1.145h3.782zM185.277 37.573c0-1.6-.66-2.497-1.794-2.497-1.2 0-2.119 1.06-2.119 2.832 0 1.654.789 2.605 2.227 2.605a4.375 4.375 0 0 0 1.459-.238l-.195-1.016a3.104 3.104 0 0 1-1.005.173 1.02 1.02 0 0 1-1.124-1.124h2.508a3.773 3.773 0 0 0 .043-.735zm-2.54-.26c.01-.53.195-1.21.66-1.21.42 0 .594.53.594 1.21zM187.491 35.163v1.999h1.114v-1.999h1.415v5.285h-1.415v-2.086h-1.114v2.086h-1.416v-5.285h1.416zM192.288 35.163v1.145c0 .962-.054 1.892-.107 2.432h.032c.173-.551.41-1.145.583-1.567l.8-2.01h1.34v5.285h-1.286v-1.156c0-1.07.054-1.676.087-2.378h-.033a15.077 15.077 0 0 1-.507 1.502c-.14.357-.563 1.395-.866 2.032h-1.318v-5.285zM197.193 35.163v1.145c0 .962-.053 1.892-.107 2.432h.032c.173-.551.41-1.145.583-1.567l.8-2.01h1.34v5.285h-1.286v-1.156c0-1.07.054-1.676.087-2.378h-.033a15.077 15.077 0 0 1-.507 1.502c-.14.357-.563 1.395-.866 2.032h-1.318v-5.285zM197.377 33.12c.01.432.194.66.487.66.345 0 .497-.26.508-.66h.864a1.294 1.294 0 0 1-1.405 1.362 1.239 1.239 0 0 1-1.319-1.362z"/><path fill="#4f824a" d="M25.254 18.859l5.795 5.795h7.237L25.254 11.622 12.225 24.651h7.237l5.792-5.792z"/><path fill="#4f824a" d="M25.254 30.773l9.009 9.009h7.236L25.254 23.537 9.009 39.782h7.236l9.009-9.009z"/><path d="M0 .246v50.508h18.908l5.165-5.166h-.002l1.183-1.183 1.183 1.183h-.003l5.166 5.166h18.907V.246zm45.342 45.342H34.351l-9.097-9.097-9.097 9.097H5.166V5.412h40.176z" fill="#d5574e"/><g fill="#4f824a"><path d="M67.797 22.75a3.078 3.078 0 0 0 3.113 2.577 2.991 2.991 0 0 0 2.321-.995c.613-.664.843-1.404.92-3.649h-5.666v-3.088h5.64c-.077-2.168-.281-2.908-.894-3.571a2.99 2.99 0 0 0-2.321-.996 3.097 3.097 0 0 0-3.113 2.577h-3.521a6.36 6.36 0 0 1 6.66-5.664 6.632 6.632 0 0 1 4.898 1.99c1.837 1.837 1.786 4.108 1.786 7.246s.051 5.41-1.786 7.247a6.632 6.632 0 0 1-4.899 1.99 6.375 6.375 0 0 1-6.66-5.664zM86.041 23.234h-1.658v5.027h-3.317V15.502h3.317v5.18h1.352l4.211-5.18h3.751l-5.078 5.946 3.138 4.006h2.246v2.807h-3.828l-4.134-5.027zM108.407 19.126a5.752 5.752 0 0 0-1.314-2.131 5.93 5.93 0 0 0-2.13-1.365 7.977 7.977 0 0 0-2.871-.485 8.122 8.122 0 0 0-2.77.447 5.743 5.743 0 0 0-3.508 3.432 7.857 7.857 0 0 0-.484 2.858 8.135 8.135 0 0 0 .446 2.756 5.729 5.729 0 0 0 1.314 2.13 5.929 5.929 0 0 0 2.131 1.366 7.974 7.974 0 0 0 2.87.484 8.124 8.124 0 0 0 2.77-.446 5.747 5.747 0 0 0 3.508-3.432 7.872 7.872 0 0 0 .485-2.858 8.156 8.156 0 0 0-.447-2.756zm-3.904 5.741a3.239 3.239 0 0 1-2.411.944 3.206 3.206 0 0 1-1.404-.293 2.99 2.99 0 0 1-1.046-.83 3.813 3.813 0 0 1-.663-1.25 5.042 5.042 0 0 1-.23-1.556 5.495 5.495 0 0 1 .255-1.786 3.42 3.42 0 0 1 .702-1.225 2.593 2.593 0 0 1 1.058-.702 3.954 3.954 0 0 1 1.328-.217 2.988 2.988 0 0 1 2.475 1.084 4.423 4.423 0 0 1 .867 2.846 4.118 4.118 0 0 1-.931 2.985zM111.125 25.148h2.347V13.512h-2.347v-3.113h13.116v5.792h-2.807v-2.679h-4.466v11.636h3.802v3.113h-9.645v-3.113zM137.688 25.454q-.026-.331-.077-.689-.05-.663-.05-1.199 0-.714.089-1.633.089-.92.09-2.22a6.153 6.153 0 0 0-.256-1.837 3.448 3.448 0 0 0-.83-1.404 3.78 3.78 0 0 0-1.505-.906 7.009 7.009 0 0 0-2.258-.318 13.357 13.357 0 0 0-3.177.33 13.928 13.928 0 0 0-2.36.792l.785 2.603a14.874 14.874 0 0 1 1.748-.663 7.632 7.632 0 0 1 2.33-.332 2.71 2.71 0 0 1 1.647.42 1.631 1.631 0 0 1 .558 1.391v.485a2.643 2.643 0 0 1-.05.51q-.737-.05-1.244-.102t-.963-.05a10.475 10.475 0 0 0-2.345.242 5.434 5.434 0 0 0-1.8.74 3.302 3.302 0 0 0-1.141 1.276 4.06 4.06 0 0 0-.393 1.85 3.488 3.488 0 0 0 1.115 2.704 4.298 4.298 0 0 0 3.019 1.021 4.838 4.838 0 0 0 2.535-.574 4.404 4.404 0 0 0 1.446-1.365h.127l.335 1.735h4.284v-2.807zm-3.292-1.123a3.01 3.01 0 0 1-.883.958 3.055 3.055 0 0 1-1.816.446 1.96 1.96 0 0 1-1.376-.395 1.46 1.46 0 0 1-.416-1.11 1.206 1.206 0 0 1 .227-.74 1.674 1.674 0 0 1 .606-.498 3.181 3.181 0 0 1 .858-.28 5.229 5.229 0 0 1 .958-.09 8.812 8.812 0 0 1 1.085.063q.505.065.757.115zM154.401 18.666a5.464 5.464 0 0 0-1.084-1.99 4.208 4.208 0 0 0-1.684-1.16 6.077 6.077 0 0 0-2.156-.371 4.872 4.872 0 0 0-4.288 1.888h-.102l-.382-1.53h-4.338v2.807h1.914v15.055h3.317v-5.231a4.315 4.315 0 0 0 1.276.37 10.488 10.488 0 0 0 1.557.114 6.978 6.978 0 0 0 2.679-.484 5.374 5.374 0 0 0 1.99-1.404 6.283 6.283 0 0 0 1.25-2.233 9.383 9.383 0 0 0 .434-2.947 9.542 9.542 0 0 0-.383-2.884zm-3.291 4.772a3.784 3.784 0 0 1-.715 1.353 2.711 2.711 0 0 1-1.072.778 3.562 3.562 0 0 1-1.326.242 5.68 5.68 0 0 1-1.365-.166 2.72 2.72 0 0 1-1.034-.446v-5.307a2.516 2.516 0 0 1 1.11-1.455 3.371 3.371 0 0 1 1.774-.485 2.645 2.645 0 0 1 2.067.919 3.788 3.788 0 0 1 .816 2.603 6.639 6.639 0 0 1-.255 1.964zM168.206 25.301v-9.799h-8.88a31.687 31.687 0 0 1-.23 4.098 22.679 22.679 0 0 1-.548 2.902 11.66 11.66 0 0 1-.638 1.845 6.503 6.503 0 0 1-.524.954h-1.505v6.022h2.807v-3.062h8.727v3.062h2.807v-6.022zm-3.317.153h-4.185a7.488 7.488 0 0 0 .561-1.398q.255-.839.447-1.805.19-.967.319-1.997.127-1.029.179-1.944h2.679zM185.021 20.606a5.694 5.694 0 0 0-.548-2.654 4.73 4.73 0 0 0-1.417-1.671 5.458 5.458 0 0 0-1.9-.88 8.48 8.48 0 0 0-4.708.165 6.12 6.12 0 0 0-2.182 1.264 5.88 5.88 0 0 0-1.467 2.104 7.498 7.498 0 0 0-.537 2.948 7.861 7.861 0 0 0 .473 2.82 5.725 5.725 0 0 0 3.547 3.457 8.675 8.675 0 0 0 2.922.46 9.99 9.99 0 0 0 1.785-.154 9.433 9.433 0 0 0 1.545-.408 8.339 8.339 0 0 0 1.224-.548 4.497 4.497 0 0 0 .855-.6l-1.097-2.17a5.313 5.313 0 0 1-1.595.869 7.476 7.476 0 0 1-2.514.356 6.006 6.006 0 0 1-1.441-.166 3.63 3.63 0 0 1-1.2-.522 2.72 2.72 0 0 1-.841-.92 2.935 2.935 0 0 1-.345-1.377h9.187a12.164 12.164 0 0 0 .254-2.373zm-9.364-.051a2.683 2.683 0 0 1 .357-1.17 2.905 2.905 0 0 1 .778-.87 3.492 3.492 0 0 1 1.059-.534 4.213 4.213 0 0 1 1.25-.182 2.52 2.52 0 0 1 2.833 2.756zM196.683 23.234h-5.435v5.027h-3.317V15.502h3.317v4.797h5.435v-4.797H200v12.759h-3.317v-5.027z"/></g></svg><svg data-name="Слой 1" viewBox="-1 -1 46.14 46.6" width="46.14" height="46.6" id="sales" x="92.28" y="53" xmlns="http://www.w3.org/2000/svg"><title>sales</title><path d="M33.512 3.864a21.654 21.654 0 1 0 10.247 18.413A21.592 21.592 0 0 0 33.512 3.864zM6.864 11.457A18.804 18.804 0 0 1 12.51 6.25c1.76.742 3.074 2.94 3.074 5.456 0 3.103-2 5.724-4.366 5.724s-4.365-2.621-4.365-5.724c0-.084.007-.166.01-.249zm5.419 26.709a18.522 18.522 0 0 1-8.304-20.482 8.606 8.606 0 0 0 7.24 4.295c4.924 0 8.915-4.6 8.915-10.273a11.011 11.011 0 0 0-2.817-7.48 18.334 18.334 0 0 1 10.149.165zm18.982.362a6.19 6.19 0 0 1-2.351-5.042c0-3.098 2-5.715 4.368-5.715 2.154 0 4 2.169 4.315 4.893a18.818 18.818 0 0 1-6.332 5.864zm8.882-11.588a8.495 8.495 0 0 0-6.865-3.715c-4.924 0-8.915 4.594-8.915 10.26a11.112 11.112 0 0 0 2.315 6.881 18.11 18.11 0 0 1-9.543-.083L32.266 6.635a18.534 18.534 0 0 1 7.88 20.305z" fill="#fff196"/></svg><svg data-name="Слой 1" viewBox="-1 -1 46.14 46.6" width="46.14" height="46.6" id="specialist" x="138.42000000000002" y="53" xmlns="http://www.w3.org/2000/svg"><title>specialist</title><g fill="#fff196"><path d="M22.072.615A21.688 21.688 0 1 0 43.76 22.302 21.711 21.711 0 0 0 22.072.615zm9.638 37.667c.001-.034.01-.066.01-.1v-7.148a6.693 6.693 0 0 0-3.327-5.766v14.598a18.341 18.341 0 0 1-12.75-.04V25.333a6.69 6.69 0 0 0-3.22 5.7v7.149c0 .034.01.066.01.1a18.688 18.688 0 1 1 19.277 0z"/><path d="M27.653 14.402a5.6 5.6 0 0 0-3.395-4.83v2.011a.567.567 0 0 1-1.134 0V9.231a5.477 5.477 0 0 0-2.104 0v2.352a.567.567 0 0 1-1.134 0V9.571a5.6 5.6 0 0 0-3.395 4.831.866.866 0 0 0-.69.838.878.878 0 0 0 .875.875h10.792a.878.878 0 0 0 .875-.875.865.865 0 0 0-.69-.838zM22.072 23.384c2.816 0 5.099-2.896 5.099-6.47H16.973c0 3.574 2.283 6.47 5.099 6.47zM19.161 24.662a6.628 6.628 0 0 0-.964.078v5.214h7.75v-5.23a6.642 6.642 0 0 0-.857-.062z"/></g></svg></svg>