<svg id="02ec8db5-2e34-4bb4-8e5c-0fb97e341e0f" data-name="Слой 1" xmlns="http://www.w3.org/2000/svg" viewBox="0 0 44.14386 44.60417">
  <title>delivery</title>
  <path d="M22.0719.61458A21.6878,21.6878,0,0,0,.41254,21.19185q-.02792.5517-.02814,1.11023A21.65534,21.65534,0,0,0,5.1499,35.84414q.60965.76025,1.28491,1.46252A21.68089,21.68089,0,1,0,22.0719.61458ZM5.19318,14.33431q2.25018-.018,4.50031-.035a1.13832,1.13832,0,1,1,.02081,2.2652q-2.71783.02225-5.43567.04285A18.50576,18.50576,0,0,1,5.19318,14.33431ZM3.4419,21.167a18.67378,18.67378,0,0,1,.26715-2.2627c2.00482-.01508,4.00964-.03564,6.01453-.05121a1.14964,1.14964,0,0,1,1.22406.831,1.10642,1.10642,0,0,1-.55023,1.29883,1.5333,1.5333,0,0,1-.64026.13239Q6.59958,21.14443,3.4419,21.167Zm18.63,19.82257A18.62953,18.62953,0,0,1,8.071,34.63784a.29521.29521,0,0,1,.27936-.13306q5.4744-.02911,10.94873-.07642a1.74747,1.74747,0,0,1,.18524.02637,8.029,8.029,0,0,0,.01508,1.06866,3.68141,3.68141,0,0,0,4.32538,3.17542,5.72218,5.72218,0,0,0,4.75458-4.0354c.08221-.23511.18085-.33447.43646-.32318.41766.01843.83722.009,1.25543-.00537a1.32811,1.32811,0,0,0,1.35669-1.16705c.11969-.59857.24438-1.19611.36688-1.79413l-.00189-.23547c-.23486-.51221-.27655-.554-.81079-.78491.25629-1.30017.515-2.61243.77368-3.92468l-.00494-.62793a1.04152,1.04152,0,0,0-1.1427-.55493c-.27734.04193-.41461-.08673-.54706-.31982-1.22656-2.15826-2.47418-4.30457-3.69537-6.46582a1.1094,1.1094,0,0,0-1.109-.62726c-1.33356.03223-2.66809.02747-4.0022.03754l-.43.00336c.15112-.85181.29407-1.65973.43781-2.46753.14191-.7973.29767-1.59247.4231-2.39233a.8541.8541,0,0,0-.95819-1.09674q-7.22672.058-14.45331.11841a18.68162,18.68162,0,1,1,15.598,28.954ZM19.68262,25.30672c.31976-1.77722.6333-3.5199.95544-5.31042.42438-.00336.83862-.00659,1.25287-.00989.86249-.00677,1.725-.02118,2.5874-.01221a.50369.50369,0,0,1,.37653.178c.96057,1.646,1.90491,3.30151,2.85138,4.95575a.5445.5445,0,0,1,.02881.13531C25.06567,25.2643,22.40869,25.28524,19.68262,25.30672Zm6.93787,8.70477a3.15259,3.15259,0,0,1-2.67633,2.59473,2.02815,2.02815,0,0,1-2.28162-2.50415,3.13136,3.13136,0,0,1,2.93329-2.44214A1.97353,1.97353,0,0,1,26.62048,34.01149Z" style="fill: #fff196"/>
</svg>
