<svg id="e4525ce9-b647-48ee-8c84-1dc2cf3f2e9f" data-name="Слой 1" xmlns="http://www.w3.org/2000/svg" viewBox="0 0 44.14386 44.60417">
  <title>guarantee</title>
  <g>
    <path d="M22.07195.61458a21.6875,21.6875,0,1,0,21.6875,21.6875A21.71148,21.71148,0,0,0,22.07195.61458Zm0,40.375a18.6875,18.6875,0,1,1,18.6875-18.6875A18.7082,18.7082,0,0,1,22.07195,40.98958Z" style="fill: #fff196"/>
    <path d="M17.51866,32.68477c.30255-.27209.5907-.56006.92322-.87982a4.66778,4.66778,0,0,1-.66-.35815,1.1096,1.1096,0,0,0-.74823-.20319c-1.31244.00739-2.62494.00348-3.93738.0033-.67584-.00012-.85376-.17432-.85376-.84033q-.00037-9.99261,0-19.98523c0-.67346.17389-.847.84631-.847q7.502-.00018,15.00391,0c.68042.00006.84338.16333.84338.84436q.00018,5.01123-.00372,10.0224c-.00031.20184.03827.31421.25293.38721a1.46191,1.46191,0,0,1,.57922.34882,10.59409,10.59409,0,0,1,.69305.89227c0-.36963-.00067-.75555.00012-1.14154q.01089-5.30951.02112-10.619a2.11727,2.11727,0,0,0-2.15857-2.2735q-7.72568-.01474-15.45129-.00256a2.10535,2.10535,0,0,0-1.33124.4458,2.25457,2.25457,0,0,0-.83557,1.91553q.00677,9.35129.0025,18.70258c0,.48724-.00769.97461.002,1.46161a2.11711,2.11711,0,0,0,2.13879,2.23206c1.46143.01746,2.92316.00653,4.38477.00018A.46928.46928,0,0,0,17.51866,32.68477Z" style="fill: #fff196"/>
    <path d="M27.27043,33.528c.3891.07806.78339.13031,1.08594.17944a.84253.84253,0,0,0,.939-.68231c.07227-.38025.1319-.76379.17566-1.14832a1.00228,1.00228,0,0,1,.61761-.87573c.31677-.142.62341-.30676.933-.46436a.85863.85863,0,0,0,.42426-1.32684c-.16626-.32758-.33209-.65552-.50531-.97943a.90725.90725,0,0,1-.00012-.90942c.17719-.33307.34869-.66919.51843-1.00616a.84835.84835,0,0,0-.41229-1.28607c-.31781-.16327-.6344-.33038-.96-.47711a1.0026,1.0026,0,0,1-.6156-.87726c-.04053-.36487-.09808-.72858-.16473-1.08972a.82515.82515,0,0,0-1.00708-.72705c-.35364.05194-.70752.10583-1.05768.17688a1.03866,1.03866,0,0,1-1.07538-.33521c-.23578-.26855-.49451-.51752-.75055-.76752a.83936.83936,0,0,0-1.28839-.00366c-.26312.257-.52991.512-.77289.78735a1.00812,1.00812,0,0,1-1.022.32581c-.37091-.069-.74323-.13312-1.11719-.1825a.83419.83419,0,0,0-.99084.75476c-.062.3924-.12317.785-.17743,1.17853a.88393.88393,0,0,1-.51306.71735c-.35632.17529-.71265.35077-1.06494.534a.84745.84745,0,0,0-.40015,1.24884c.1767.35565.36047.70782.54559,1.05914a.86348.86348,0,0,1,.00037.85443c-.17114.32507-.338.65234-.50555.97931a.88023.88023,0,0,0,.43738,1.37061q.492.2482.98584.49261a.88431.88431,0,0,1,.51453.71637c.05286.38367.11566.766.17365,1.14893a.83947.83947,0,0,0,1.02209.7832c.36432-.04565.7265-.11084,1.08771-.17761a1.01328,1.01328,0,0,1,1.02356.32251c.25061.282.52222.54626.7948.80762a.8228.8228,0,0,0,1.24286-.00214c.25757-.24835.519-.49536.752-.76593A1.07934,1.07934,0,0,1,27.27043,33.528Zm-2.52917-.78949a5.08672,5.08672,0,1,1,5.11615-5.0802A5.08586,5.08586,0,0,1,24.74126,32.73855Z" style="fill: #fff196"/>
    <path d="M26.32085,13.03524a1.76891,1.76891,0,0,0-.4411-.04871q-5.30823-.00385-10.61658-.00183c-.6037,0-.93738.25232-.94653.71277-.0094.47156.32654.72961.9541.72986q2.65421.00082,5.30829.00018,2.63928,0,5.2785-.001a2.19159,2.19159,0,0,0,.41547-.0257.71969.71969,0,0,0,.56555-.68073A.71006.71006,0,0,0,26.32085,13.03524Z" style="fill: #fff196"/>
    <path d="M25.87828,16.69045q-5.30777-.00339-10.6156.00006a1.89358,1.89358,0,0,0-.41217.04486.648.648,0,0,0-.52136.58008.61025.61025,0,0,0,.31842.681,1.39551,1.39551,0,0,0,.596.12909c1.77911.00952,3.55835.00549,5.33759.00555q2.639,0,5.278-.00067a2.67475,2.67475,0,0,0,.35687-.01617.71131.71131,0,0,0,.61957-.6618.70346.70346,0,0,0-.545-.71893A1.8427,1.8427,0,0,0,25.87828,16.69045Z" style="fill: #fff196"/>
    <path d="M31.12468,33.43215c-.36365-.36371-.72772-.72693-1.14056-1.13922-.04114.28351-.06976.48853-.10083.69324a1.4203,1.4203,0,0,1-1.72455,1.26129c-.33313-.05457-.67218-.08374-.99884-.164a.52034.52034,0,0,0-.64618.26416.221.221,0,0,0,.02808.05762c.99683.99921,1.99,2.00208,2.99426,2.99371a.45524.45524,0,0,0,.81561-.26715c.08234-.39844.15668-.799.21826-1.20111a.28372.28372,0,0,1,.28107-.275,10.27023,10.27023,0,0,0,1.16821-.22687c.16052-.044.37659-.17493.41241-.308a.66483.66483,0,0,0-.15674-.52057C31.9124,34.19234,31.51128,33.81868,31.12468,33.43215Z" style="fill: #fff196"/>
    <path d="M22.39226,34.082c-.35516.08722-.72247.12646-1.08533.181a1.4062,1.4062,0,0,1-1.62183-1.14508c-.05042-.25256-.08459-.50836-.13031-.78815-.81073.80084-1.60205,1.56555-2.37146,2.35168a.43266.43266,0,0,0,.27332.74023c.40643.08984.81592.16962,1.22742.23132a.29688.29688,0,0,1,.29254.3c.05121.36292.133.72137.19763,1.08252.03986.22247.09564.43573.34137.51367.24664.07819.41077-.06573.57141-.22711q1.38684-1.39325,2.77869-2.78168c.06055-.06061.11371-.12848.16565-.18768A.52136.52136,0,0,0,22.39226,34.082Z" style="fill: #fff196"/>
    <path d="M24.74407,23.30153A4.348,4.348,0,1,0,29.116,27.61135,4.36176,4.36176,0,0,0,24.74407,23.30153Z" style="fill: #fff196"/>
  </g>
</svg>
