<svg id="7225cabe-4044-4e03-b925-d618ed5a8d89" data-name="Слой 1" xmlns="http://www.w3.org/2000/svg" viewBox="0 0 200 51">
  <title>logo</title>
  <g>
    <polygon points="68.21 35.163 68.21 40.448 66.794 40.448 66.794 36.308 65.691 36.308 65.691 40.448 64.276 40.448 64.276 35.163 68.21 35.163" style="fill: #d5574e"/>
    <path d="M70.47779,35.163v1.14517c0,.96231-.05378,1.89152-.108,2.43183h.03268c.17293-.55107.41041-1.14517.58334-1.56716L71.786,35.163h1.34v5.28483H71.83975V39.29191c0-1.0707.0542-1.67556.08647-2.378h-.03227a15.29357,15.29357,0,0,1-.508,1.5018c-.14066.35745-.56224,1.39506-.86467,2.03218H69.20271V35.163Z" style="fill: #d5574e"/>
    <polygon points="77.458 35.163 77.458 36.308 76.28 36.308 76.28 40.448 74.854 40.448 74.854 36.308 73.675 36.308 73.675 35.163 77.458 35.163" style="fill: #d5574e"/>
    <path d="M79.7699,35.0761c-1.04837,0-2.04255.84316-2.04255,2.74544,0,1.71858.7563,2.71318,2.021,2.71318.79969,0,2.021-.54034,2.021-2.74544C81.76939,36.12447,81.01313,35.0761,79.7699,35.0761Zm.01076,4.37717c-.50807,0-.6483-.7563-.6483-1.664,0-.724.108-1.6433.62679-1.6433.47577,0,.59448.91931.59448,1.6433C80.35363,38.56709,80.23491,39.45327,79.78066,39.45327Z" style="fill: #d5574e"/>
    <path d="M82.76272,35.163h1.76161l.38889,1.68549c.10839.45426.20562.86467.35662,1.54565h.03268c.14025-.67022.216-1.10214.31318-1.54565l.36779-1.68549h1.762l.34587,5.28483H86.77247l-.065-1.84766c-.01076-.49729-.03227-1.12448-.0542-2.23738h-.02151c-.08647.45343-.2594,1.37272-.44309,2.18277l-.41082,1.81622H84.63231l-.42158-1.83773c-.12949-.5941-.31318-1.62095-.43233-2.16126h-.02151c-.01076,1.09139-.03227,1.72934-.04344,2.24814l-.05378,1.83691H82.38417Z" style="fill: #d5574e"/>
    <polygon points="90.347 35.163 90.347 37.162 91.46 37.162 91.46 35.163 92.877 35.163 92.877 40.448 91.46 40.448 91.46 38.362 90.347 38.362 90.347 40.448 88.932 40.448 88.932 35.163 90.347 35.163" style="fill: #d5574e"/>
    <path d="M95.14405,35.163v1.14517c0,.96231-.05378,1.89152-.10757,2.43183h.03227c.17293-.55107.41041-1.14517.58334-1.56716l.80013-2.00984h1.34045v5.28483H96.506V39.29191c0-1.0707.05378-1.67556.08688-2.378h-.0331a15.07694,15.07694,0,0,1-.50722,1.5018c-.14066.35745-.56266,1.39506-.8655,2.03218H93.869V35.163Z" style="fill: #d5574e"/>
    <path d="M100.15748,35.163v2.10748h.15142l.91845-2.10748h1.47035l-1.362,2.26965c.52956.17293.7993.82164.94,1.51338a9.74736,9.74736,0,0,0,.465,1.5018H101.325a5.83141,5.83141,0,0,1-.379-1.28583c-.12908-.52956-.34587-.9077-.69174-.9077h-.09681v2.19353H98.774V35.163Z" style="fill: #d5574e"/>
    <path d="M109.04,39.41021V35.163h-3.45868v1.43727a8.28976,8.28976,0,0,1-.17294,1.72934,3.367,3.367,0,0,1-.38886,1.08059l-.43192.02155.05378,2.47566h1.05912l.07611-1.4596h2.56092l.06535,1.4596h1.06988l.05382-2.47566Zm-1.39421-.03227h-1.27508a3.98248,3.98248,0,0,0,.32437-1.06988,10.2611,10.2611,0,0,0,.12988-1.61017v-.4435h.82083Z" style="fill: #d5574e"/>
    <path d="M113.85815,37.57332c0-1.60024-.65864-2.49721-1.79387-2.49721-1.1998,0-2.11824,1.05912-2.11824,2.83234,0,1.65319.78856,2.60476,2.22662,2.60476a4.37523,4.37523,0,0,0,1.45878-.23833l-.19445-1.01606a3.108,3.108,0,0,1-1.00531.17294,1.02093,1.02093,0,0,1-1.12369-1.12369h2.50715A3.7733,3.7733,0,0,0,113.85815,37.57332Zm-2.53937-.2598c.01076-.52958.19441-1.21055.65946-1.21055.42113,0,.59407.52958.59407,1.21055Z" style="fill: #d5574e"/>
    <path d="M116.0401,35.163v2.10748h.15142L117.11,35.163h1.47035l-1.362,2.26965c.52956.17293.7993.82164.94,1.51338a9.74736,9.74736,0,0,0,.465,1.5018h-1.41574a5.83141,5.83141,0,0,1-.379-1.28583c-.12908-.52956-.34587-.9077-.69174-.9077h-.09681v2.19353h-1.38347V35.163Z" style="fill: #d5574e"/>
    <path d="M120.91368,35.0761c-1.04833,0-2.04292.84316-2.04292,2.74544,0,1.71858.75626,2.71318,2.02141,2.71318.79932,0,2.02063-.54034,2.02063-2.74544C122.9128,36.12447,122.1565,35.0761,120.91368,35.0761Zm.01076,4.37717c-.508,0-.64871-.7563-.64871-1.664,0-.724.10841-1.6433.6272-1.6433.47494,0,.59411.91931.59411,1.6433C121.497,38.56709,121.37787,39.45327,120.92444,39.45327Z" style="fill: #d5574e"/>
    <path d="M126.0893,35.0761a1.205,1.205,0,0,0-1.103.69177h-.02151l-.07533-.60487h-1.232c.02151.49728.043,1.03761.043,1.67474V42.523h1.41572V40.0159h.02155a1.0289,1.0289,0,0,0,.87542.51883c.88618,0,1.71858-.85391,1.71858-2.73469C127.73178,36.32968,127.256,35.0761,126.0893,35.0761Zm-.4435,4.30184c-.16219,0-.34588-.086-.45426-.41037a1.08164,1.08164,0,0,1-.07533-.4543V37.09755a.87366.87366,0,0,1,.06457-.37815.54779.54779,0,0,1,.47577-.45426c.422,0,.65946.5403.65946,1.54564C126.316,38.6432,126.14308,39.37794,125.6458,39.37794Z" style="fill: #d5574e"/>
    <path d="M132.09647,39.23731V37.2705c0-1.06988-.259-2.19439-1.86915-2.19439a3.44388,3.44388,0,0,0-1.6433.39966l.2598.95157a1.97567,1.97567,0,0,1,1.08063-.30286.67317.67317,0,0,1,.74554.71328v.11913c-1.1998.01076-2.42107.58336-2.42107,1.96681a1.46518,1.46518,0,0,0,1.39421,1.611,1.37965,1.37965,0,0,0,1.16749-.60569h.02155l.07611.51879h1.27508A7.11361,7.11361,0,0,1,132.09647,39.23731Zm-1.38346-.44268a.92315.92315,0,0,1-.03227.24823.6145.6145,0,0,1-.58336.45426c-.216,0-.508-.19445-.508-.724,0-.73561.64871-.887,1.12365-.8978Z" style="fill: #d5574e"/>
    <polygon points="136.387 35.163 136.387 36.308 135.208 36.308 135.208 40.448 133.781 40.448 133.781 36.308 132.604 36.308 132.604 35.163 136.387 35.163" style="fill: #d5574e"/>
    <path d="M138.265,35.163v1.14517c0,.96231-.05378,1.89152-.10757,2.43183h.03227c.17293-.55107.41041-1.14517.58334-1.56716l.80013-2.00984h1.34045v5.28483H139.627V39.29191c0-1.0707.05378-1.67556.08688-2.378h-.0331a15.077,15.077,0,0,1-.50722,1.5018c-.14066.35745-.56266,1.39506-.8655,2.03218h-1.3181V35.163Z" style="fill: #d5574e"/>
    <path d="M144.74879,37.6486v-.02151a1.24658,1.24658,0,0,0,1.0161-1.22127c0-1.189-1.405-1.32972-2.33421-1.32972a10.82337,10.82337,0,0,0-1.53489.10841v5.27406c.30282.03227.79932.05464,1.29659.05464,1.08145,0,2.8-.206,2.8-1.611A1.30643,1.30643,0,0,0,144.74879,37.6486Zm-1.491-1.62093a1.82229,1.82229,0,0,1,.35664-.03309c.508,0,.8324.206.8324.61644,0,.43275-.40048.65946-.86467.65946h-.32437Zm.34588,3.56623a1.82509,1.82509,0,0,1-.35664-.03227v-1.3727h.33513c.55105,0,1.00449.216,1.00449.71324C144.58661,39.421,144.10091,39.59391,143.60363,39.59391Z" style="fill: #d5574e"/>
    <polygon points="148.195 35.163 148.195 37.162 149.308 37.162 149.308 35.163 150.725 35.163 150.725 40.448 149.308 40.448 149.308 38.362 148.195 38.362 148.195 40.448 146.779 40.448 146.779 35.163 148.195 35.163" style="fill: #d5574e"/>
    <path d="M153.66194,36.80544a2.9352,2.9352,0,0,0-.55109.04306V35.163h-1.39421V40.4048a11.0066,11.0066,0,0,0,1.38346.09766,3.39394,3.39394,0,0,0,1.913-.51883,1.68114,1.68114,0,0,0,.67022-1.41654A1.81367,1.81367,0,0,0,153.66194,36.80544Zm-.24823,2.6594a2.46009,2.46009,0,0,1-.30286-.01158v-1.5887a1.289,1.289,0,0,1,.29207-.02151.81175.81175,0,1,1,.0108,1.62179Z" style="fill: #d5574e"/>
    <rect x="156.11527" y="35.16301" width="1.41574" height="5.28483" style="fill: #d5574e"/>
    <path d="M159.61533,35.163l.32435.94c.10839.3136.19445.6272.25981.88618h.02151c.0753-.26974.16218-.5941.24823-.88618l.3136-.94h1.4265l-1.19978,2.594,1.22129,2.69082H160.6852l-.35662-.99458q-.14522-.40462-.259-.81006h-.02151c-.06537.26974-.16218.54032-.2383.81006l-.32353.99458h-1.41657l1.17827-2.62628L158.08043,35.163Z" style="fill: #d5574e"/>
    <path d="M166.87689,35.0761a1.205,1.205,0,0,0-1.103.69177h-.02151l-.07533-.60487h-1.232c.02151.49728.043,1.03761.043,1.67474V42.523h1.41572V40.0159h.02155a1.0289,1.0289,0,0,0,.87542.51883c.88618,0,1.71858-.85391,1.71858-2.73469C168.51937,36.32968,168.04357,35.0761,166.87689,35.0761Zm-.4435,4.30184c-.16219,0-.34588-.086-.45426-.41037a1.08164,1.08164,0,0,1-.07533-.4543V37.09755a.87426.87426,0,0,1,.06457-.37815.54779.54779,0,0,1,.47577-.45426c.422,0,.65946.5403.65946,1.54564C167.10361,38.6432,166.93067,39.37794,166.43339,39.37794Z" style="fill: #d5574e"/>
    <path d="M172.88406,39.23731V37.2705c0-1.06988-.259-2.19439-1.86915-2.19439a3.44388,3.44388,0,0,0-1.6433.39966l.2598.95157a1.97567,1.97567,0,0,1,1.08063-.30286.67317.67317,0,0,1,.74554.71328v.11913c-1.1998.01076-2.42107.58336-2.42107,1.96681a1.46518,1.46518,0,0,0,1.39421,1.611,1.37977,1.37977,0,0,0,1.16753-.60569h.02151l.07611.51879H172.971A7.11361,7.11361,0,0,1,172.88406,39.23731Zm-1.38346-.44268a.92315.92315,0,0,1-.03226.24823.61447.61447,0,0,1-.58336.45426c-.216,0-.508-.19445-.508-.724,0-.73561.64871-.887,1.12365-.8978Z" style="fill: #d5574e"/>
    <path d="M176.81688,40.36179a2.50025,2.50025,0,0,1-.89694.15142c-1.34045,0-2.21587-.93-2.21587-2.65938a2.47693,2.47693,0,0,1,2.42108-2.76694,2.08017,2.08017,0,0,1,.77779.14066l-.18369,1.1129a1.4886,1.4886,0,0,0-.52956-.09681c-.681,0-1.08063.64871-1.08063,1.56716,0,.96231.39965,1.54565,1.05912,1.54565a1.154,1.154,0,0,0,.52956-.10839Z" style="fill: #d5574e"/>
    <polygon points="181.095 35.163 181.095 36.308 179.917 36.308 179.917 40.448 178.49 40.448 178.49 36.308 177.313 36.308 177.313 35.163 181.095 35.163" style="fill: #d5574e"/>
    <path d="M185.27658,37.57332c0-1.60024-.65864-2.49721-1.79387-2.49721-1.1998,0-2.11824,1.05912-2.11824,2.83234,0,1.65319.78852,2.60476,2.22662,2.60476a4.37523,4.37523,0,0,0,1.45878-.23833l-.19445-1.01606a3.10385,3.10385,0,0,1-1.00535.17294,1.0209,1.0209,0,0,1-1.12365-1.12369h2.50715A3.77331,3.77331,0,0,0,185.27658,37.57332Zm-2.53941-.2598c.01075-.52958.19445-1.21055.65946-1.21055.42117,0,.59411.52958.59411,1.21055Z" style="fill: #d5574e"/>
    <polygon points="187.491 35.163 187.491 37.162 188.605 37.162 188.605 35.163 190.02 35.163 190.02 40.448 188.605 40.448 188.605 38.362 187.491 38.362 187.491 40.448 186.075 40.448 186.075 35.163 187.491 35.163" style="fill: #d5574e"/>
    <path d="M192.28826,35.163v1.14517c0,.96231-.05378,1.89152-.10757,2.43183h.03227c.17293-.55107.41041-1.14517.58334-1.56716l.80013-2.00984h1.34045v5.28483h-1.28666V39.29191c0-1.0707.05378-1.67556.08688-2.378h-.0331a15.077,15.077,0,0,1-.50722,1.5018c-.14066.35745-.56266,1.39506-.8655,2.03218h-1.3181V35.163Z" style="fill: #d5574e"/>
    <path d="M197.1933,35.163v1.14517c0,.96231-.05378,1.89152-.10757,2.43183h.03227c.17293-.55107.41041-1.14517.58334-1.56716l.80013-2.00984h1.34045v5.28483h-1.28666V39.29191c0-1.0707.05378-1.67556.08688-2.378h-.0331a15.07693,15.07693,0,0,1-.50722,1.5018c-.14066.35745-.56266,1.39506-.8655,2.03218h-1.3181V35.163Z" style="fill: #d5574e"/>
    <path d="M197.377,33.12008c.01076.43192.19445.65947.48653.65947.34587,0,.49729-.25981.508-.65947h.86467a1.294,1.294,0,0,1-1.405,1.362,1.23869,1.23869,0,0,1-1.31893-1.362Z" style="fill: #d5574e"/>
    <polygon points="25.254 18.859 31.049 24.654 38.286 24.654 25.254 11.622 12.225 24.651 19.462 24.651 25.254 18.859" style="fill: #4f824a"/>
    <polygon points="25.254 30.773 34.263 39.782 41.499 39.782 25.254 23.537 9.009 39.782 16.245 39.782 25.254 30.773" style="fill: #4f824a"/>
    <path d="M0,.24625V50.75375H18.9078l5.16552-5.16552h-.0025l1.18289-1.18293,1.18293,1.18293h-.0025l5.16552,5.16552H50.50749V.24625Zm45.342,45.342H34.3506l-9.09689-9.09685L16.1569,45.58822H5.16557V5.41178H45.342Z" style="fill: #d5574e"/>
    <g>
      <path d="M67.79661,22.75a3.078,3.078,0,0,0,3.1131,2.5766,2.99132,2.99132,0,0,0,2.32175-.99457c.61229-.66392.84231-1.40364.91877-3.64894H68.48536V17.59547h5.63939c-.07646-2.16884-.281-2.90856-.89328-3.57183a2.9896,2.9896,0,0,0-2.32175-.99522,3.09734,3.09734,0,0,0-3.1131,2.5766H64.27575A6.35908,6.35908,0,0,1,70.93519,9.9408a6.63245,6.63245,0,0,1,4.899,1.99045c1.83688,1.83688,1.78591,4.10767,1.78591,7.24625s.051,5.40937-1.78591,7.24625a6.63245,6.63245,0,0,1-4.899,1.99045A6.37524,6.37524,0,0,1,64.27575,22.75Z" style="fill: #4f824a"/>
      <polygon points="86.041 23.234 84.383 23.234 84.383 28.261 81.066 28.261 81.066 15.502 84.383 15.502 84.383 20.682 85.735 20.682 89.946 15.502 93.697 15.502 88.619 21.448 91.757 25.454 94.003 25.454 94.003 28.261 90.175 28.261 86.041 23.234" style="fill: #4f824a"/>
      <path d="M108.40737,19.12585a5.75243,5.75243,0,0,0-1.31478-2.13093,5.92993,5.92993,0,0,0-2.13027-1.36507,7.97656,7.97656,0,0,0-2.87068-.48488,8.12194,8.12194,0,0,0-2.76872.44695,5.74268,5.74268,0,0,0-3.50843,3.432,7.85734,7.85734,0,0,0-.48488,2.85759,8.135,8.135,0,0,0,.44633,2.75632,5.72884,5.72884,0,0,0,1.31412,2.13027A5.929,5.929,0,0,0,99.221,28.13387a7.97389,7.97389,0,0,0,2.87064.48422,8.1245,8.1245,0,0,0,2.76872-.44633,5.74693,5.74693,0,0,0,3.50847-3.432,7.87227,7.87227,0,0,0,.48488-2.85825A8.15551,8.15551,0,0,0,108.40737,19.12585Zm-3.90444,5.74133a3.23865,3.23865,0,0,1-2.4113.94427,3.20587,3.20587,0,0,1-1.40361-.29338,2.98912,2.98912,0,0,1-1.04619-.82924,3.81274,3.81274,0,0,1-.66328-1.25074,5.04245,5.04245,0,0,1-.23-1.55656,5.4949,5.4949,0,0,1,.25549-1.78591,3.41938,3.41938,0,0,1,.70183-1.22459,2.59252,2.59252,0,0,1,1.05859-.70183,3.95413,3.95413,0,0,1,1.32718-.21695,2.98753,2.98753,0,0,1,2.47534,1.08412,4.42291,4.42291,0,0,1,.86713,2.84515A4.11785,4.11785,0,0,1,104.50293,24.86718Z" style="fill: #4f824a"/>
      <polygon points="111.125 25.148 113.472 25.148 113.472 13.512 111.125 13.512 111.125 10.399 124.241 10.399 124.241 16.191 121.434 16.191 121.434 13.512 116.968 13.512 116.968 25.148 120.77 25.148 120.77 28.261 111.125 28.261 111.125 25.148" style="fill: #4f824a"/>
      <path d="M137.68772,25.454q-.02543-.33127-.07643-.68873-.051-.66359-.051-1.1991,0-.71457.08953-1.633.08922-.91943.08953-2.22046a6.15324,6.15324,0,0,0-.25549-1.83689,3.44784,3.44784,0,0,0-.82924-1.40365,3.7793,3.7793,0,0,0-1.50558-.90572,7.00892,7.00892,0,0,0-2.25839-.31887,13.35682,13.35682,0,0,0-3.17646.33131,13.92824,13.92824,0,0,0-2.361.79136l.78544,2.60271a14.87443,14.87443,0,0,1,1.748-.66324,7.63247,7.63247,0,0,1,2.33092-.332,2.71022,2.71022,0,0,1,1.64671.42084,1.63141,1.63141,0,0,1,.55741,1.39056V20.274a2.64328,2.64328,0,0,1-.05033.51033q-.73612-.05092-1.24286-.10193t-.96323-.051a10.47541,10.47541,0,0,0-2.34525.24244,5.434,5.434,0,0,0-1.80031.73971,3.30225,3.30225,0,0,0-1.14093,1.27623,4.05939,4.05939,0,0,0-.39272,1.84994,3.48779,3.48779,0,0,0,1.11544,2.70468,4.29759,4.29759,0,0,0,3.01834,1.02074,4.83772,4.83772,0,0,0,2.53543-.57375,4.40364,4.40364,0,0,0,1.44614-1.36576h.12676l.33521,1.73562h4.28345V25.454Zm-3.29148-1.12263a3.00916,3.00916,0,0,1-.88281.95732,3.05481,3.05481,0,0,1-1.81665.44633,1.95935,1.95935,0,0,1-1.37553-.39535,1.46062,1.46062,0,0,1-.41624-1.11023,1.20575,1.20575,0,0,1,.22742-.73976,1.67409,1.67409,0,0,1,.60511-.49793,3.18119,3.18119,0,0,1,.858-.28033,5.22851,5.22851,0,0,1,.95863-.08953,8.81248,8.81248,0,0,1,1.08474.06338q.50479.06471.75737.115Z" style="fill: #4f824a"/>
      <path d="M154.40137,18.66646a5.464,5.464,0,0,0-1.08412-1.99042,4.20822,4.20822,0,0,0-1.6846-1.16056,6.07686,6.07686,0,0,0-2.1558-.37051,4.87217,4.87217,0,0,0-4.28735,1.88849h-.102l-.38291-1.53107h-4.33768v2.8073h1.914V33.36483h3.317v-5.231a4.31466,4.31466,0,0,0,1.27623.36986,10.48787,10.48787,0,0,0,1.55652.11436,6.978,6.978,0,0,0,2.67919-.48422,5.37434,5.37434,0,0,0,1.99046-1.40365,6.28265,6.28265,0,0,0,1.25009-2.2329,9.38325,9.38325,0,0,0,.43389-2.94712A9.54186,9.54186,0,0,0,154.40137,18.66646Zm-3.29153,4.77161a3.78421,3.78421,0,0,1-.71488,1.35267,2.71135,2.71135,0,0,1-1.07168.77826,3.562,3.562,0,0,1-1.32652.24244,5.68034,5.68034,0,0,1-1.36507-.166,2.71974,2.71974,0,0,1-1.03379-.44633V19.89171a2.51574,2.51574,0,0,1,1.11023-1.45459,3.37116,3.37116,0,0,1,1.77351-.48488,2.64536,2.64536,0,0,1,2.06689.91877,3.78753,3.78753,0,0,1,.81619,2.60275A6.639,6.639,0,0,1,151.10985,23.43808Z" style="fill: #4f824a"/>
      <path d="M168.20575,25.30107V15.5024h-8.8799a31.68692,31.68692,0,0,1-.22934,4.09786,22.67855,22.67855,0,0,1-.54892,2.90139,11.65918,11.65918,0,0,1-.63779,1.84539,6.50268,6.50268,0,0,1-.52342.954H155.8808v6.02235h2.80726V28.26129h8.727v3.06214h2.80665V25.30107Zm-3.317.15291H160.704a7.48844,7.48844,0,0,0,.56131-1.39774q.25486-.839.44633-1.80553.19113-.96647.31887-1.99633.12746-1.02922.17906-1.94469h2.67919Z" style="fill: #4f824a"/>
      <path d="M185.02133,20.606a5.69374,5.69374,0,0,0-.54826-2.65374,4.73042,4.73042,0,0,0-1.41671-1.67154,5.45775,5.45775,0,0,0-1.90093-.88023,8.47938,8.47938,0,0,0-4.70753.166,6.11939,6.11939,0,0,0-2.18191,1.26318,5.88085,5.88085,0,0,0-1.467,2.10478,7.49766,7.49766,0,0,0-.53652,2.94712,7.86148,7.86148,0,0,0,.47248,2.8197,5.7248,5.7248,0,0,0,3.547,3.4581,8.67544,8.67544,0,0,0,2.92163.45877,9.98993,9.98993,0,0,0,1.78591-.15291,9.43257,9.43257,0,0,0,1.54416-.40844,8.339,8.339,0,0,0,1.22459-.54826,4.49664,4.49664,0,0,0,.85469-.59986l-1.09713-2.16886a5.3126,5.3126,0,0,1-1.59445.86779,7.476,7.476,0,0,1-2.51388.3568,6.00553,6.00553,0,0,1-1.44154-.166,3.62929,3.62929,0,0,1-1.1991-.52277,2.71989,2.71989,0,0,1-.8423-.91877,2.93475,2.93475,0,0,1-.34441-1.3775h9.18638A12.16394,12.16394,0,0,0,185.02133,20.606Zm-9.36478-.051a2.68275,2.68275,0,0,1,.35742-1.16971,2.90543,2.90543,0,0,1,.7783-.87107,3.49226,3.49226,0,0,1,1.05859-.53319,4.213,4.213,0,0,1,1.25074-.18169,2.52063,2.52063,0,0,1,2.8321,2.75566Z" style="fill: #4f824a"/>
      <polygon points="196.683 23.234 191.248 23.234 191.248 28.261 187.931 28.261 187.931 15.502 191.248 15.502 191.248 20.299 196.683 20.299 196.683 15.502 200 15.502 200 28.261 196.683 28.261 196.683 23.234" style="fill: #4f824a"/>
    </g>
  </g>
</svg>
