<svg id="40d01a63-02d3-4d1d-8873-ac1bfdd17ef0" data-name="Слой 1" xmlns="http://www.w3.org/2000/svg" viewBox="0 0 44.14386 44.60417">
  <title>sales</title>
  <path d="M33.51159,3.86385A21.65416,21.65416,0,1,0,43.75946,22.27749,21.592,21.592,0,0,0,33.51159,3.86385ZM6.8637,11.45736a18.80428,18.80428,0,0,1,5.64777-5.20721c1.75885.74194,3.07343,2.94043,3.07343,5.45612,0,3.10254-1.99915,5.72363-4.3656,5.72363S6.85376,14.8088,6.85376,11.70626C6.85376,11.6224,6.86084,11.54049,6.8637,11.45736Zm5.41895,26.70831a18.5217,18.5217,0,0,1-8.30359-20.4812,8.60624,8.60624,0,0,0,7.24023,4.2948c4.92365,0,8.915-4.59937,8.915-10.273a11.01144,11.01144,0,0,0-2.8172-7.47992,18.3344,18.3344,0,0,1,10.1488.16467Zm18.98267.36249a6.18947,6.18947,0,0,1-2.35144-5.0423c0-3.0976,2.00037-5.71454,4.36816-5.71454,2.15436,0,3.99915,2.1684,4.31519,4.89221A18.81818,18.81818,0,0,1,31.26532,38.52816Zm8.88153-11.58777A8.49538,8.49538,0,0,0,33.282,23.22451c-4.92358,0-8.915,4.59412-8.915,10.26135a11.1119,11.1119,0,0,0,2.31451,6.88025,18.10987,18.10987,0,0,1-9.54205-.08319L32.26568,6.63521a18.534,18.534,0,0,1,7.88116,20.30518Z" style="fill: #fff196"/>
</svg>
