<svg id="0ebd66d6-0634-4df0-8582-8e15f26b56c8" data-name="Слой 1" xmlns="http://www.w3.org/2000/svg" viewBox="0 0 44.14386 44.60417">
  <title>specialist</title>
  <g>
    <path d="M22.072.61458a21.6875,21.6875,0,1,0,21.6875,21.6875A21.71148,21.71148,0,0,0,22.072.61458Zm9.63837,37.66754c.00067-.03424.01019-.0661.01019-.10052v-7.148a6.69266,6.69266,0,0,0-3.32709-5.766v14.598a18.34122,18.34122,0,0,1-12.75-.03925V25.33278a6.68976,6.68976,0,0,0-3.22,5.70081v7.148c0,.03442.00952.06628.01019.10052a18.68752,18.68752,0,1,1,19.27673,0Z" style="fill: #fff196"/>
    <path d="M27.65313,14.40218a5.6004,5.6004,0,0,0-3.39545-4.83069V11.583a.56668.56668,0,0,1-1.13336,0V9.23134a5.47746,5.47746,0,0,0-2.1048,0V11.583a.56668.56668,0,0,1-1.13336,0V9.57149a5.60046,5.60046,0,0,0-3.39551,4.83069.86554.86554,0,0,0-.68958.83734.87756.87756,0,0,0,.875.875H27.46777a.8776.8776,0,0,0,.875-.875A.86548.86548,0,0,0,27.65313,14.40218Z" style="fill: #fff196"/>
    <path d="M22.072,23.38381c2.816,0,5.09888-2.89624,5.09888-6.46893H16.973C16.973,20.48757,19.25591,23.38381,22.072,23.38381Z" style="fill: #fff196"/>
    <path d="M19.161,24.662a6.62786,6.62786,0,0,0-.96405.07819v5.2135h7.75V24.72378a6.64169,6.64169,0,0,0-.857-.06177Z" style="fill: #fff196"/>
  </g>
</svg>
